<svg xmlns="http://www.w3.org/2000/svg" width="920" height="250" viewBox="0 0 920 250" role="img" aria-labelledby="title desc">
  <title id="title">AI Knowledge Base</title>
  <desc id="desc">Brand banner for AI Knowledge Base</desc>
  <defs>
    <linearGradient id="titleGrad" x1="210" y1="82" x2="760" y2="154" gradientUnits="userSpaceOnUse">
      <stop offset="0" stop-color="#2563eb"/>
      <stop offset="0.42" stop-color="#7c3aed"/>
      <stop offset="1" stop-color="#f472b6"/>
    </linearGradient>
    <linearGradient id="bookGrad" x1="47" y1="55" x2="184" y2="185" gradientUnits="userSpaceOnUse">
      <stop offset="0" stop-color="#38bdf8"/>
      <stop offset="0.55" stop-color="#6366f1"/>
      <stop offset="1" stop-color="#ec4899"/>
    </linearGradient>
    <filter id="softShadow" x="-20%" y="-20%" width="140%" height="140%">
      <feDropShadow dx="0" dy="14" stdDeviation="18" flood-color="#1e1b4b" flood-opacity="0.16"/>
    </filter>
  </defs>

  <rect width="920" height="250" rx="28" fill="#ffffff"/>
  <circle cx="105" cy="119" r="86" fill="#eef2ff"/>
  <circle cx="178" cy="58" r="11" fill="#f9a8d4"/>
  <circle cx="44" cy="168" r="8" fill="#22d3ee"/>
  <path d="M178 58 L139 91 L44 168" fill="none" stroke="#a5b4fc" stroke-width="4" stroke-linecap="round" stroke-dasharray="8 9"/>

  <g filter="url(#softShadow)">
    <path d="M74 82 C97 78 116 86 132 101 L132 183 C113 167 95 161 74 166 C66 168 60 163 60 155 L60 92 C60 87 65 83 74 82Z" fill="url(#bookGrad)"/>
    <path d="M143 101 C159 86 178 78 201 82 C210 83 215 87 215 92 L215 155 C215 163 209 168 201 166 C180 161 162 167 143 183 Z" fill="#dbeafe"/>
    <path d="M132 101 C136 105 139 105 143 101 L143 183 C139 188 136 188 132 183 Z" fill="#312e81"/>
    <path d="M80 103 C98 101 113 107 126 119" fill="none" stroke="#ffffff" stroke-width="7" stroke-linecap="round" opacity="0.86"/>
    <path d="M154 119 C168 107 184 101 202 103" fill="none" stroke="#6366f1" stroke-width="7" stroke-linecap="round" opacity="0.72"/>
    <circle cx="117" cy="82" r="8" fill="#22d3ee"/>
    <circle cx="158" cy="82" r="8" fill="#f472b6"/>
    <path d="M117 82 C126 61 150 61 158 82" fill="none" stroke="#312e81" stroke-width="5" stroke-linecap="round"/>
    <path d="M100 139 h38 m-38 18 h28" stroke="#ffffff" stroke-width="6" stroke-linecap="round" opacity="0.88"/>
    <path d="M158 139 h36 m-36 18 h24" stroke="#4f46e5" stroke-width="6" stroke-linecap="round" opacity="0.56"/>
  </g>

  <text x="245" y="108" fill="url(#titleGrad)" font-family="Inter, Segoe UI, Arial, sans-serif" font-size="58" font-weight="800">AI Knowledge Base</text>
  <text x="249" y="154" fill="#334155" font-family="Inter, Segoe UI, Arial, sans-serif" font-size="22" font-weight="600">Markdown AI workspace for local reading and editing</text>
  <g font-family="Inter, Segoe UI, Arial, sans-serif" font-size="15" font-weight="700">
    <rect x="250" y="178" width="128" height="34" rx="17" fill="#eff6ff"/>
    <text x="272" y="200" fill="#2563eb">FastAPI</text>
    <rect x="393" y="178" width="104" height="34" rx="17" fill="#f5f3ff"/>
    <text x="418" y="200" fill="#7c3aed">Astro</text>
    <rect x="512" y="178" width="154" height="34" rx="17" fill="#ecfeff"/>
    <text x="534" y="200" fill="#0891b2">Tool Calling</text>
    <rect x="681" y="178" width="164" height="34" rx="17" fill="#fdf2f8"/>
    <text x="704" y="200" fill="#db2777">Local Markdown</text>
  </g>
</svg>
